<?xml version="1.0" encoding="iso-8859-1"?>
<!-- Generator: Adobe Illustrator 19.0.0, SVG Export Plug-In . SVG Version: 6.00 Build 0)  -->
<svg version="1.1" id="Capa_1" xmlns="http://www.w3.org/2000/svg" xmlns:xlink="http://www.w3.org/1999/xlink" x="0px" y="0px"
	 viewBox="0 0 512 512" style="enable-background:new 0 0 512 512;" xml:space="preserve">
<g>
	<g>
		<path d="M497,137h-60c-90.981,0-166,74.019-166,165V149.484c-4.904,0.831-9.864,1.516-15,1.516s-10.096-0.685-15-1.516V302
			c0-90.981-75.019-165-166-165H15c-8.284,0-15,6.714-15,15c0,16.567,13.431,30,30,30h76c8.284,0,15,6.714,15,15
			c0,8.284-6.716,15-15,15H45c-8.284,0-15,6.714-15,15c0,16.567,13.431,30,30,30h76c8.284,0,15,6.714,15,15c0,8.284-6.716,15-15,15
			H75c-8.284,0-15,6.714-15,15c0,16.567,13.431,30,30,30h65.18c-2.661,6.096-4.18,12.797-4.18,19.863
			c0,21.504,13.711,40.518,34.102,47.314l132.305,44.092c8.13,2.71,13.594,10.298,13.594,18.867
			c0,10.957-8.906,19.863-19.863,19.863c-8.291,0-15,6.709-15,15c0,8.291,6.709,15,15,15C338.632,512,361,489.632,361,462.137
			c0-21.504-13.711-40.518-34.102-47.314L194.594,370.73c-8.13-2.71-13.594-10.298-13.594-18.867
			c0-10.957,8.906-19.963,19.863-19.963c2.802,0,37.52,0,40.137,0v22.673l30,9.998V331.9c2.802,0,37.52,0,40.137,0
			c10.957,0,19.863,9.006,19.863,19.963c0,8.569-5.464,16.157-13.594,18.867l-13.962,4.653l32.932,10.977
			c2.446,0.815,4.704,1.948,7.026,2.975c10.754-9.27,17.598-22.627,17.598-37.472c0-7.066-1.52-13.768-4.18-19.863H422
			c16.569,0,30-13.433,30-30c0-8.286-6.716-15-15-15h-61c-8.284,0-15-6.716-15-15c0-8.286,6.716-15,15-15h76
			c16.569,0,30-13.433,30-30c0-8.286-6.716-15-15-15h-61c-8.284,0-15-6.716-15-15c0-8.286,6.716-15,15-15h76
			c16.569,0,30-13.433,30-30C512,143.714,505.284,137,497,137z"/>
	</g>
</g>
<g>
	<g>
		<path d="M256,0c-33.137,0-60,26.862-60,60c0,33.137,26.863,61,60,61c33.137,0,60-27.863,60-61C316,26.862,289.137,0,256,0z"/>
	</g>
</g>
<g>
	<g>
		<path d="M200.863,482C189.906,482,181,473.094,181,462.137c0-8.57,5.464-16.158,13.594-18.867l13.965-4.655l-32.935-10.975
			c-2.446-0.815-4.704-1.948-7.026-2.975C157.844,433.935,151,447.292,151,462.137C151,489.632,173.368,512,200.863,512
			c8.291,0,15-6.709,15-15C215.863,488.709,209.154,482,200.863,482z"/>
	</g>
</g>
<g>
	<g>
		<path d="M241,449.425V497c0,8.291,6.709,15,15,15s15-6.709,15-15v-37.577L241,449.425z"/>
	</g>
</g>
<g>
</g>
<g>
</g>
<g>
</g>
<g>
</g>
<g>
</g>
<g>
</g>
<g>
</g>
<g>
</g>
<g>
</g>
<g>
</g>
<g>
</g>
<g>
</g>
<g>
</g>
<g>
</g>
<g>
</g>
</svg>
