<?xml version="1.0" encoding="iso-8859-1"?>
<!-- Generator: Adobe Illustrator 16.0.0, SVG Export Plug-In . SVG Version: 6.00 Build 0)  -->
<!DOCTYPE svg PUBLIC "-//W3C//DTD SVG 1.1//EN" "http://www.w3.org/Graphics/SVG/1.1/DTD/svg11.dtd">
<svg version="1.1" id="Capa_1" xmlns="http://www.w3.org/2000/svg" xmlns:xlink="http://www.w3.org/1999/xlink" x="0px" y="0px"
	 width="103.931px" height="103.931px" viewBox="0 0 103.931 103.931" style="enable-background:new 0 0 103.931 103.931;"
	 xml:space="preserve">
<g>
	<path d="M101.084,28.907V27.54h-0.254v-0.845l-0.746-0.43C99.28,25.801,80.27,14.931,65.951,14.931
		c-7.638,0-11.771,3.129-13.909,7.275c-2.087-4.3-6.233-7.59-14.058-7.59c-14.32,0-33.337,10.871-34.132,11.333l-0.75,0.431v0.845
		H2.849v0.382H0v61.708h103.931V28.903h-2.847V28.907z M54.159,83.665c0.205-4.767,1.074-12.415,11.279-12.415
		c7.508,0,18.582,4.191,32.88,12.415H54.159z M65.948,18.163c12.214,0,28.66,8.617,32.329,10.628v51.305
		c-14.113-8.015-25.163-12.073-32.839-12.073c-3.799,0-6.752,0.979-8.904,2.471c1.57-3.224,4.141-8.001,7.597-12.922l-0.462,2.539
		c0.763,0.171,1.495,0.253,2.214,0.253c11.711,0,17.398-21.525,17.652-22.495l0.54-2.096l-1.971,0.038
		c-11.017,0.224-18.261,3.287-21.536,9.098c-3.021,5.368-1.68,11.356-0.91,13.834c-2.926,4.572-5.041,8.754-6.293,11.444
		l-0.021-44.211C55.004,20.731,59.169,18.163,65.948,18.163z M63.046,46.592c2.365-4.17,7.539-6.613,15.345-7.33
		c-6.728,4.026-12.278,10.169-16.501,16.159C61.462,53.019,61.328,49.625,63.046,46.592z M78.843,42.64
		c-2.478,6.35-7.33,15.575-14.28,14.339C68.348,51.681,73.139,46.301,78.843,42.64z M5.65,28.476
		c3.668-2.012,20.1-10.629,32.334-10.629c6.906,0,11.076,2.688,12.667,8.135l-0.091,44.916c-1.247-2.693-3.357-6.852-6.266-11.396
		c0.779-2.478,2.117-8.466-0.91-13.837c-3.273-5.81-10.525-8.872-21.538-9.093l-1.966-0.04l0.539,2.096
		c0.251,0.97,5.939,22.495,17.658,22.495c0.712,0,1.444-0.082,2.204-0.25l-0.459-2.542c2.947,4.199,5.236,8.271,6.822,11.389
		c-2.074-1.222-4.769-2.012-8.15-2.012c-7.686,0-18.731,4.065-32.846,12.073V28.476z M25.56,40.022
		c7.811,0.719,12.983,3.16,15.35,7.332c1.713,3.026,1.579,6.425,1.156,8.834C37.84,50.193,32.29,44.051,25.56,40.022z
		 M39.396,57.742c-6.956,1.239-11.81-7.994-14.28-14.342C30.816,47.066,35.607,52.441,39.396,57.742z M38.496,70.931
		c10.196,0,11.069,7.651,11.276,12.415H5.607C19.905,75.126,30.986,70.931,38.496,70.931z"/>
</g>
<g>
</g>
<g>
</g>
<g>
</g>
<g>
</g>
<g>
</g>
<g>
</g>
<g>
</g>
<g>
</g>
<g>
</g>
<g>
</g>
<g>
</g>
<g>
</g>
<g>
</g>
<g>
</g>
<g>
</g>
</svg>
