<?xml version="1.0" encoding="iso-8859-1"?>
<!-- Generator: Adobe Illustrator 18.0.0, SVG Export Plug-In . SVG Version: 6.00 Build 0)  -->
<!DOCTYPE svg PUBLIC "-//W3C//DTD SVG 1.1//EN" "http://www.w3.org/Graphics/SVG/1.1/DTD/svg11.dtd">
<svg version="1.1" id="Capa_1" xmlns="http://www.w3.org/2000/svg" xmlns:xlink="http://www.w3.org/1999/xlink" x="0px" y="0px"
	 viewBox="0 0 297 297" style="enable-background:new 0 0 297 297;" xml:space="preserve">
<path d="M219.705,148.5c0-15.564-11.478-33.516-34.111-53.355c-7.369-6.458-14.687-12.042-20.476-16.211
	c5.789-4.169,13.106-9.753,20.475-16.21c22.635-19.839,34.112-37.789,34.112-53.354c0-5.175-4.195-9.369-9.369-9.369
	c-5.174,0-9.369,4.194-9.369,9.369c0,6.306-4.067,13.823-10.3,21.548h-84.334c-6.232-7.725-10.3-15.242-10.3-21.548
	C96.033,4.194,91.838,0,86.664,0c-5.174,0-9.369,4.194-9.369,9.369c0,15.566,11.478,33.516,34.112,53.354
	c7.368,6.457,14.686,12.041,20.475,16.21c-5.789,4.169-13.106,9.753-20.476,16.211c-22.634,19.84-34.111,37.791-34.111,53.355
	c0,15.565,11.478,33.516,34.112,53.355c7.368,6.457,14.686,12.041,20.475,16.21c-5.789,4.169-13.106,9.753-20.476,16.211
	c-22.634,19.84-34.111,37.791-34.111,53.355c0,5.174,4.195,9.369,9.369,9.369c5.174,0,9.369-4.195,9.369-9.369
	c0-6.306,4.07-13.824,10.304-21.55h84.345c6.223,7.72,10.285,15.235,10.285,21.55c0,5.174,4.195,9.369,9.369,9.369
	c5.174,0,9.369-4.195,9.369-9.369c0-15.564-11.478-33.516-34.111-53.355c-7.369-6.458-14.687-12.042-20.476-16.211
	c5.789-4.169,13.106-9.753,20.475-16.21C208.227,182.016,219.705,164.065,219.705,148.5z M148.504,229.239
	c7.448,4.998,15.826,11.294,23.668,18.104h-47.318C132.689,240.536,141.061,234.239,148.504,229.239z M106.334,126.95h84.332
	c3.367,4.173,6.107,8.285,7.908,12.18H98.426C100.228,135.235,102.967,131.123,106.334,126.95z M148.5,90.116
	c7.443,4.999,15.809,11.289,23.645,18.096h-47.291C132.691,101.403,141.057,95.115,148.5,90.116z M198.575,157.868
	c-1.802,3.895-4.541,8.007-7.908,12.18h-84.334c-3.367-4.173-6.106-8.285-7.908-12.18H198.575z M172.146,188.786
	c-7.837,6.809-16.203,13.098-23.646,18.098c-7.443-5.001-15.81-11.289-23.646-18.098H172.146z M148.5,67.753
	c-7.443-5.001-15.81-11.289-23.646-18.098h47.293C164.31,56.464,155.943,62.753,148.5,67.753z"/>
<g>
</g>
<g>
</g>
<g>
</g>
<g>
</g>
<g>
</g>
<g>
</g>
<g>
</g>
<g>
</g>
<g>
</g>
<g>
</g>
<g>
</g>
<g>
</g>
<g>
</g>
<g>
</g>
<g>
</g>
</svg>
